<svg xmlns="http://www.w3.org/2000/svg" xmlns:xlink="http://www.w3.org/1999/xlink" width="40" zoomAndPan="magnify" viewBox="0 0 30 30.000001" height="40" preserveAspectRatio="xMidYMid meet" version="1.0"><defs><clipPath id="878e6e2fd5"><path d="M 19 21 L 29.515625 21 L 29.515625 29.03125 L 19 29.03125 Z M 19 21 " clip-rule="nonzero"/></clipPath><clipPath id="798ed20fac"><path d="M 2.199219 1.980469 L 27.855469 1.980469 L 27.855469 27.050781 L 2.199219 27.050781 Z M 2.199219 1.980469 " clip-rule="nonzero"/></clipPath><clipPath id="2c321bafca"><path d="M 3.214844 5.984375 C 1.179688 9.8125 2.601562 13.535156 4.4375 15.511719 L 15.183594 27.050781 L 25.703125 15.554688 C 27.414062 13.429688 28.058594 11.171875 27.703125 8.660156 C 27.203125 5.183594 24.640625 2.488281 21.480469 2.105469 C 19.542969 1.886719 17.667969 2.484375 16.207031 3.84375 C 15.816406 4.210938 15.464844 4.617188 15.15625 5.0625 C 14.792969 4.554688 14.367188 4.09375 13.882812 3.683594 C 12.203125 2.253906 10.0625 1.726562 8.007812 2.128906 C 6.0625 2.546875 4.316406 3.953125 3.214844 5.984375 Z M 3.214844 5.984375 " clip-rule="nonzero"/></clipPath></defs><g clip-path="url(#878e6e2fd5)"><path stroke-linecap="round" transform="matrix(0.153469, 0, 0, -0.153435, -127.268327, 506.447278)" fill="none" stroke-linejoin="round" d="M 1498.158911 2859.656261 C 1498.158911 2725.005433 1389.016216 2615.83872 1254.36956 2615.83872 C 1119.697452 2615.83872 1010.554757 2725.005433 1010.554757 2859.656261 C 1010.554757 2994.307089 1119.697452 3103.473803 1254.36956 3103.473803 C 1389.016216 3103.473803 1498.158911 2994.307089 1498.158911 2859.656261 Z M 1498.158911 2859.656261 " stroke="#28213c" stroke-width="110" stroke-opacity="1" stroke-miterlimit="10"/></g><g clip-path="url(#798ed20fac)"><g clip-path="url(#2c321bafca)"><path fill="#a4a4a4" d="M 2.199219 1.980469 L 27.757812 1.980469 L 27.757812 27.050781 L 2.199219 27.050781 Z M 2.199219 1.980469 " fill-opacity="1" fill-rule="nonzero"/></g></g></svg>